{"title":"Buffalo Bill And The Indians  (Western Comedy. 1976)  Paul Newma","uid":9407090,"size":656292159,"categoryP":"video","categoryS":"movies","magnet":"?xt=urn:btih:1deaa324612d99056b8f2ff0d9dc6930e352c703&amp;dn=Buffalo+Bill+And+The+Indians++%28Western+Comedy.+1976%29++Paul+Newma&amp;tr=udp%3A%2F%2Ftracker.openbittorrent.com%3A80&amp;tr=udp%3A%2F%2Fopen.demonii.com%3A1337&amp;tr=udp%3A%2F%2Ftracker.coppersurfer.tk%3A6969&amp;tr=udp%3A%2F%2Fexodus.desync.com%3A6969","seeders":3,"leechers":4,"uploader":"BurtonW","files":1,"time":1388188856,"description":" &lt;a href=&quot;http://www.imdb.com/title/tt0074254/?ref_=fn_al_tt_1&quot; rel=&quot;nofollow&quot; target=&quot;_NEW&quot;&gt;http://www.imdb.com/title/tt0074254/?ref_=fn_al_tt_1&lt;/a&gt;\n\n\nA very good quality film.\n\n\nEnglish subtitles!\n\n\nStoryline:\n\nBuffalo Bill plans to put on his own Wild West sideshow, and Chief Sitting Bull has agreed to appear in it. However, Sitting Bull has his own hidden agenda, involving the President and General Custer.\n\n\nTechnical info:\n\n\nGeneral:\n\nComplete name:                  : Buffalo Bill And The Indians  (Western Comedy. 1976)  Paul Newman, Kevin Mccarthy &amp; Joel Grey.mp4\n\nFormat                         : MPEG-4\nFormat profile                 : Base Media / Version 2\nCodec ID                       : mp42\nFile size                      : 626 MiB\nDuration                       : 1h 58mn\nOverall bit rate mode          : Variable\nOverall bit rate               : 736 Kbps\nEncoded date                   : UTC 2013-12-03 22:19:47\nTagged date                    : UTC 2013-12-04 08:18:59\n\n\nVideo:\n\nID                             : 1\nFormat                         : AVC\nFormat/Info                    : Advanced Video Codec\nFormat profile                 : &lt;a class=&quot;__cf_email__&quot; href=&quot;/cdn-cgi/l/email-protection&quot; data-cfemail=&quot;de93bfb7b09e92eaf0ee&quot;&gt;[email&amp;#160;protected]&lt;/a&gt;&lt;script cf-hash='f9e31' type=&quot;text/javascript&quot;&gt;\n/* &lt;![CDATA[ */!function(){try{var t=&quot;currentScript&quot;in document?document.currentScript:function(){for(var t=document.getElementsByTagName(&quot;script&quot;),e=t.length;e--;)if(t[e].getAttribute(&quot;cf-hash&quot;))return t[e]}();if(t&amp;&amp;t.previousSibling){var e,r,n,i,c=t.previousSibling,a=c.getAttribute(&quot;data-cfemail&quot;);if(a){for(e=&quot;&quot;,r=parseInt(a.substr(0,2),16),n=2;a.length-n;n+=2)i=parseInt(a.substr(n,2),16)^r,e+=String.fromCharCode(i);e=document.createTextNode(e),c.parentNode.replaceChild(e,c)}}}catch(u){}}();/* ]]&gt; */&lt;/script&gt;\nFormat settings, CABAC         : Yes\nFormat settings, ReFrames      : 12 frames\nCodec ID                       : avc1\nCodec ID/Info                  : Advanced Video Coding\nDuration                       : 1h 58mn\nDuration_LastFrame             : -7ms\nBit rate mode                  : Variable\nBit rate                       : 576 Kbps\nWidth                          : 1 280 pixels\nHeight                         : 544 pixels\nDisplay aspect ratio           : 2.35:1\nFrame rate mode                : Constant\nFrame rate                     : 25.000 fps\nColor space                    : YUV\nChroma subsampling             : 4:2:0\nBit depth                      : 8 bits\nScan type                      : Progressive\nBits/(Pixel*Frame)             : 0.033\nStream size                    : 490 MiB (78%)\nWriting library                : x264 core 130 r2273 b3065e6\nEncoding settings              : Deleted\nEncoded date                   : UTC 2013-12-03 22:19:47\nTagged date                    : UTC 2013-12-04 08:18:59\nColor primaries                : BT.709\nTransfer characteristics       : BT.709\nMatrix coefficients            : BT.709\n\nAudio:\n\nID                             : 2\nFormat                         : AAC\nFormat/Info                    : Advanced Audio Codec\nFormat profile                 : LC\nCodec ID                       : 40\nDuration                       : 1h 58mn\nBit rate mode                  : Variable\nBit rate                       : 156 Kbps\nMaximum bit rate               : 279 Kbps\nChannel(s)                     : 2 channels\nChannel positions              : Front: L R\nSampling rate                  : 48.0 KHz\nCompression mode               : Lossy\nDelay relative to video        : 80ms\nStream size                    : 133 MiB (21%)\nEncoded date                   : UTC 2013-12-03 22:19:47\nTagged date                    : UTC 2013-12-04 08:18:58\n\nText:\n\nID                             : 3\nFormat                         : Timed text\nMuxing mode                    : sbtl\nCodec ID                       : tx3g\nDuration                       : 1h 54mn\nBit rate mode                  : Variable\nBit rate                       : 54 bps\nDelay relative to video        : 80ms\nStream size                    : 44.8 KiB (0%)\nLanguage                       : English\nEncoded date                   : UTC 2013-12-03 22:19:47\nTagged date                    : UTC 2013-12-04 08:01:47\n\n","torrent":{"xt":"urn:btih:1deaa324612d99056b8f2ff0d9dc6930e352c703","amp;dn":"Buffalo+Bill+And+The+Indians++%28Western+Comedy.+1976%29++Paul+Newma","amp;tr":["udp%3A%2F%2Ftracker.openbittorrent.com%3A80","udp%3A%2F%2Fopen.demonii.com%3A1337","udp%3A%2F%2Ftracker.coppersurfer.tk%3A6969","udp%3A%2F%2Fexodus.desync.com%3A6969"],"infoHash":"1deaa324612d99056b8f2ff0d9dc6930e352c703","infoHashBuffer":{"type":"Buffer","data":[29,234,163,36,97,45,153,5,107,143,47,240,217,220,105,48,227,82,199,3]},"announce":[],"urlList":[]}}